<svg width="101" height="24" viewBox="0 0 101 24" fill="none" xmlns="http://www.w3.org/2000/svg">
<path d="M30.5535 18.287C29.2775 18.287 28.162 18.0101 27.207 17.4563C26.252 16.8946 25.5056 16.1161 24.9679 15.121C24.4383 14.1178 24.1734 12.9622 24.1734 11.6541C24.1734 10.3379 24.4383 9.18226 24.9679 8.18713C25.5056 7.18397 26.252 6.4015 27.207 5.83973C28.162 5.27796 29.2775 4.99708 30.5535 4.99708C31.669 4.99708 32.6602 5.21376 33.5269 5.64712C34.4017 6.07246 35.0999 6.66634 35.6215 7.42874C36.1512 8.18312 36.4521 9.05386 36.5243 10.041H33.0935C32.9972 9.39092 32.7324 8.86527 32.299 8.464C31.8737 8.06274 31.3079 7.8621 30.6017 7.8621C29.7109 7.8621 29.0127 8.20318 28.5071 8.88533C28.0015 9.56748 27.7487 10.4904 27.7487 11.6541C27.7487 12.8097 28.0015 13.7286 28.5071 14.4107C29.0127 15.0849 29.7109 15.4219 30.6017 15.4219C31.3159 15.4219 31.8777 15.2213 32.287 14.82C32.6963 14.4188 32.9571 13.8851 33.0695 13.219H36.5243C36.4762 14.1981 36.1913 15.0688 35.6696 15.8312C35.148 16.5936 34.4458 17.1955 33.563 17.6369C32.6883 18.0703 31.6851 18.287 30.5535 18.287ZM37.9333 17.998V5.28599H41.352V7.45281H41.3882C41.6209 6.69041 41.986 6.12463 42.4836 5.75547C42.9812 5.3863 43.6513 5.20172 44.4939 5.20172C44.7026 5.20172 44.8912 5.20573 45.0597 5.21376C45.2363 5.22178 45.3968 5.2258 45.5412 5.2258V8.24732C45.4128 8.23929 45.2002 8.22726 44.9032 8.2112C44.6063 8.19515 44.3094 8.18713 44.0124 8.18713C43.2821 8.18713 42.6762 8.43591 42.1947 8.93348C41.7212 9.43105 41.4845 10.1573 41.4845 11.1123V17.998H37.9333ZM50.4561 18.2147C49.1881 18.2147 48.1408 17.8977 47.3142 17.2637C46.4956 16.6297 46.0863 15.6787 46.0863 14.4107C46.0863 13.4557 46.315 12.7094 46.7725 12.1717C47.2299 11.626 47.8358 11.2287 48.5902 10.9799C49.3446 10.7311 50.1632 10.5666 51.0459 10.4864C52.2096 10.366 53.0242 10.2456 53.4896 10.1252C53.9551 10.0049 54.1878 9.74002 54.1878 9.33073V9.24647C54.1878 8.781 54.0033 8.3998 53.6341 8.10286C53.2649 7.80593 52.7553 7.65746 52.1053 7.65746C51.4472 7.65746 50.9135 7.80994 50.5042 8.1149C50.095 8.41986 49.8702 8.81711 49.8301 9.30666H46.4956C46.5759 7.99853 47.1136 6.95926 48.1087 6.18883C49.1038 5.41038 50.4721 5.02115 52.2136 5.02115C53.9551 5.02115 55.3034 5.41038 56.2584 6.18883C57.2134 6.95926 57.6909 8.02261 57.6909 9.37888V17.998H54.224V16.2044H54.1758C53.8387 16.8223 53.3773 17.3119 52.7914 17.673C52.2056 18.0342 51.4271 18.2147 50.4561 18.2147ZM51.4432 15.747C52.2939 15.747 52.968 15.5222 53.4656 15.0728C53.9631 14.6154 54.2119 14.0416 54.2119 13.3514V12.0754C54.0113 12.1877 53.6782 12.2921 53.2128 12.3884C52.7473 12.4766 52.2297 12.5649 51.6599 12.6532C51.05 12.7495 50.5323 12.9261 50.107 13.1829C49.6897 13.4317 49.481 13.8088 49.481 14.3144C49.481 14.7639 49.6576 15.117 50.0107 15.3738C50.3718 15.6226 50.8493 15.747 51.4432 15.747ZM59.5842 23.0299V20.2251H61.1973C61.6226 20.2251 61.9356 20.1207 62.1363 19.9121C62.3449 19.7114 62.5335 19.3664 62.702 18.8768L63.0511 17.9499L58.1637 5.28599H61.8835L64.0142 11.5698C64.1586 12.0272 64.2991 12.4847 64.4355 12.9421C64.58 13.3996 64.7204 13.857 64.8568 14.3144C64.9933 13.857 65.1337 13.3996 65.2782 12.9421C65.4226 12.4766 65.5671 12.0192 65.7115 11.5698L67.8543 5.28599H71.5379L65.9402 19.9602C65.539 21.0196 65.0173 21.794 64.3753 22.2836C63.7333 22.7811 62.9187 23.0299 61.9316 23.0299H59.5842ZM77.9936 18.287C76.7095 18.287 75.582 18.0101 74.6109 17.4563C73.6479 16.9026 72.8935 16.1322 72.3478 15.1451C71.8101 14.1499 71.5413 12.9863 71.5413 11.6541C71.5413 10.3219 71.8101 9.15819 72.3478 8.16305C72.8935 7.16792 73.6479 6.39348 74.6109 5.83973C75.582 5.27796 76.7095 4.99708 77.9936 4.99708C79.2857 4.99708 80.4132 5.27796 81.3763 5.83973C82.3473 6.39348 83.1017 7.16792 83.6394 8.16305C84.1851 9.15819 84.458 10.3219 84.458 11.6541C84.458 12.9782 84.1851 14.1379 83.6394 15.133C83.1017 16.1282 82.3473 16.9026 81.3763 17.4563C80.4132 18.0101 79.2857 18.287 77.9936 18.287ZM77.9936 15.4099C78.8603 15.4099 79.5585 15.0809 80.0882 14.4228C80.6179 13.7567 80.8827 12.8338 80.8827 11.6541C80.8827 10.4663 80.6179 9.53939 80.0882 8.87329C79.5585 8.20719 78.8603 7.87414 77.9936 7.87414C77.1349 7.87414 76.4407 8.20719 75.911 8.87329C75.3814 9.53939 75.1165 10.4663 75.1165 11.6541C75.1165 12.8338 75.3814 13.7567 75.911 14.4228C76.4407 15.0809 77.1349 15.4099 77.9936 15.4099ZM89.6015 10.9318V17.998H86.0503V5.28599H89.5413V7.28428C89.9747 6.56201 90.5164 6.00425 91.1665 5.61101C91.8165 5.21777 92.599 5.02115 93.5139 5.02115C94.8621 5.02115 95.9415 5.45853 96.7521 6.33329C97.5626 7.20002 97.9679 8.43591 97.9679 10.041V17.998H94.4287V10.691C94.4287 9.84034 94.2241 9.1943 93.8148 8.75291C93.4055 8.3035 92.8317 8.07879 92.0934 8.07879C91.3631 8.07879 90.7652 8.30751 90.2997 8.76495C89.8343 9.22239 89.6015 9.94467 89.6015 10.9318Z" fill="white"/>
<mask id="mask0_129_5200" style="mask-type:alpha" maskUnits="userSpaceOnUse" x="2" y="2" width="19" height="18">
<path d="M15.5956 2.54796C15.7559 2.38766 16.0158 2.38766 16.1761 2.54796L19.9493 6.32117C20.1096 6.48147 20.1096 6.74136 19.9493 6.90166L16.1761 10.6749C16.0158 10.8352 15.7559 10.8352 15.5956 10.6749L11.8224 6.90166C11.6621 6.74136 11.6621 6.48147 11.8224 6.32117L15.5956 2.54796Z" fill="white"/>
<path d="M6.88819 11.2554C7.04848 11.0951 7.30838 11.0951 7.46868 11.2554L11.2419 15.0286C11.4022 15.1889 11.4022 15.4488 11.2419 15.6091L7.46868 19.3823C7.30838 19.5426 7.04848 19.5426 6.88819 19.3823L3.11498 15.6091C2.95468 15.4488 2.95468 15.1889 3.11498 15.0286L6.88819 11.2554Z" fill="white"/>
<path d="M6.88819 2.54796C7.04848 2.38766 7.30838 2.38766 7.46868 2.54796L11.2419 6.32117C11.4022 6.48147 11.4022 6.74136 11.2419 6.90166L7.46868 10.6749C7.30838 10.8352 7.04848 10.8352 6.88819 10.6749L3.11498 6.90166C2.95468 6.74136 2.95468 6.48147 3.11498 6.32117L6.88819 2.54796Z" fill="white"/>
<path d="M15.5956 11.2554C15.7559 11.0951 16.0158 11.0951 16.1761 11.2554L19.9493 15.0286C20.1096 15.1889 20.1096 15.4488 19.9493 15.6091L16.1761 19.3823C16.0158 19.5426 15.7559 19.5426 15.5956 19.3823L11.8224 15.6091C11.6621 15.4488 11.6621 15.1889 11.8224 15.0286L15.5956 11.2554Z" fill="white"/>
</mask>
<g mask="url(#mask0_129_5200)">
<rect x="-46.4503" y="-8.64844" width="103.689" height="58.3249" fill="white" style="mix-blend-mode:lighten"/>
</g>
</svg>
