<svg width="48" height="48" viewBox="0 0 48 48" fill="none" xmlns="http://www.w3.org/2000/svg">
<path d="M20 31.9998V27.9998C20 26.9389 20.4215 25.9215 21.1716 25.1713C21.9217 24.4212 22.9392 23.9998 24 23.9998H40C41.0609 23.9998 42.0783 23.5783 42.8285 22.8282C43.5786 22.078 44 21.0606 44 19.9998V13.9998C44 12.9389 43.5786 11.9215 42.8285 11.1713C42.0783 10.4212 41.0609 9.99976 40 9.99976H36M8.00003 3.99976H32C34.2092 3.99976 36 5.79062 36 7.99976V11.9998C36 14.2089 34.2092 15.9998 32 15.9998H8.00003C5.79089 15.9998 4.00003 14.2089 4.00003 11.9998V7.99976C4.00003 5.79062 5.79089 3.99976 8.00003 3.99976ZM18 31.9998H22C23.1046 31.9998 24 32.8952 24 33.9998V41.9998C24 43.1043 23.1046 43.9998 22 43.9998H18C16.8955 43.9998 16 43.1043 16 41.9998V33.9998C16 32.8952 16.8955 31.9998 18 31.9998Z" stroke="white" stroke-width="3.5" stroke-linecap="round" stroke-linejoin="round"/>
</svg>
