<svg width="93" height="38" viewBox="0 0 93 38" fill="none" xmlns="http://www.w3.org/2000/svg">
<path d="M16.0666 26.8778C15.8668 26.8778 15.7048 26.7161 15.7048 26.5167V6.16747C15.7048 5.96805 15.8668 5.8064 16.0666 5.8064H19.4544C19.6542 5.8064 19.8162 5.96805 19.8162 6.16747V11.8913C19.8162 12.244 20.3115 12.4168 20.5765 12.1835C20.8921 11.9057 21.2455 11.6686 21.6369 11.4724C22.3809 11.0796 23.2325 10.8832 24.1918 10.8832C25.3273 10.8832 26.316 11.1582 27.1578 11.708C28.0193 12.2382 28.6849 13.0041 29.1548 14.0056C29.6246 15.0071 29.8596 16.1853 29.8596 17.5403V26.5167C29.8596 26.7161 29.6976 26.8778 29.4978 26.8778H26.11C25.9102 26.8778 25.7482 26.7161 25.7482 26.5167V18.0705C25.7482 16.9904 25.5035 16.146 25.0141 15.5373C24.5246 14.9089 23.8492 14.5947 22.9878 14.5947C22.3613 14.5947 21.8131 14.742 21.3432 15.0365C20.8734 15.3114 20.5014 15.7042 20.2273 16.2148C19.9532 16.7253 19.8162 17.3046 19.8162 17.9526V26.5167C19.8162 26.7161 19.6542 26.8778 19.4544 26.8778H16.0666Z" fill="white"/>
<path fill-rule="evenodd" clip-rule="evenodd" d="M39.2403 27.3196C38.0852 27.3196 37.0182 27.1232 36.0393 26.7305C35.08 26.3181 34.2479 25.7486 33.5431 25.022C32.8383 24.2758 32.2901 23.402 31.8986 22.4005C31.507 21.3793 31.3112 20.2698 31.3112 19.072C31.3112 17.9134 31.507 16.8333 31.8986 15.8318C32.2901 14.8303 32.8285 13.9663 33.5137 13.2397C34.2185 12.4935 35.0408 11.9142 35.9806 11.5018C36.9203 11.0894 37.9383 10.8832 39.0347 10.8832C40.1702 10.8832 41.198 11.0796 42.1182 11.4724C43.0579 11.8651 43.8606 12.4248 44.5263 13.1513C45.1919 13.8779 45.7009 14.742 46.0533 15.7435C46.4253 16.745 46.6113 17.8643 46.6113 19.1014V19.7713C46.6113 19.9707 46.4494 20.1324 46.2496 20.1324H35.9021C35.6807 20.1324 35.5104 20.3295 35.5568 20.5456C35.7639 21.5102 36.1597 22.2856 36.7441 22.8718C37.4097 23.5198 38.2516 23.8438 39.2696 23.8438C39.9744 23.8438 40.9469 23.7288 41.5402 23.3431C41.9951 23.0473 42.1671 22.7259 42.3902 22.3088L42.3903 22.3086L42.3911 22.3072L42.3914 22.3066C42.4304 22.2337 42.471 22.1578 42.515 22.0787C42.577 21.967 42.6959 21.8997 42.8239 21.8997H45.9265C46.1263 21.8997 46.2898 22.062 46.2753 22.2608C46.0223 23.8438 45.23 24.8109 44.5753 25.3945C43.8705 26.0229 43.1754 26.4654 42.2357 26.8189C41.2959 27.1527 40.2975 27.3196 39.2403 27.3196ZM39.0347 14.0645C38.1341 14.0645 37.3706 14.359 36.7441 14.9482C36.2242 15.4528 35.8551 16.116 35.6369 16.9376C35.5788 17.1567 35.7505 17.3635 35.9776 17.3635H41.9612C42.1828 17.3635 42.3533 17.166 42.3042 16.9503C42.1154 16.1228 41.7598 15.4554 41.2372 14.9482C40.6499 14.359 39.9157 14.0645 39.0347 14.0645Z" fill="white"/>
<path d="M51.2192 26.7894C52.1198 27.1429 53.1183 27.3196 54.2146 27.3196C55.1348 27.3196 55.9766 27.192 56.7402 26.9367C57.5037 26.6814 58.1694 26.3181 58.7371 25.8468C59.3049 25.3755 59.7356 24.8257 60.0293 24.1973C60.3425 23.5689 60.4991 22.8718 60.4991 22.1059C60.4991 20.8491 60.0586 19.8182 59.1776 19.0131C58.2966 18.1883 57.0241 17.6286 55.3599 17.3341L54.5377 17.1868C53.6175 17.0297 52.9616 16.8235 52.5701 16.5682C52.1981 16.2933 52.0121 15.9595 52.0121 15.5667C52.0121 15.1151 52.2079 14.742 52.5995 14.4474C52.991 14.1528 53.4903 14.0056 54.0972 14.0056C54.6845 14.0056 55.3744 14.1725 55.8051 14.5063C56.1599 14.7694 56.445 15.101 56.5499 15.5264C56.5983 15.7226 56.7594 15.8877 56.9617 15.884L59.7753 15.8326C59.9724 15.829 60.1311 15.6681 60.1098 15.4725C60.013 14.583 59.5877 13.4081 59.0895 12.8568C58.5218 12.2284 57.8072 11.7473 56.9457 11.4135C56.1039 11.06 55.1642 10.8832 54.1265 10.8832C52.9519 10.8832 51.9142 11.0993 51.0137 11.5313C50.1131 11.9633 49.4083 12.5622 48.8992 13.3281C48.3902 14.0743 48.1357 14.9383 48.1357 15.9202C48.1357 17.1573 48.5664 18.1785 49.4278 18.9836C50.3089 19.7887 51.5912 20.3386 53.2749 20.6331L54.0972 20.7804C54.9782 20.9375 55.6047 21.1633 55.9766 21.4579C56.3682 21.7328 56.564 22.0863 56.564 22.5183C56.564 23.0289 56.3486 23.4314 55.9179 23.726C55.4872 24.0205 54.939 24.1678 54.2734 24.1678C53.5686 24.1678 52.9616 23.9911 52.4526 23.6376C52.011 23.331 51.6592 22.7259 51.4459 22.1736C51.3894 22.0272 51.2514 21.9254 51.0942 21.9254H48.2378C48.038 21.9254 47.8749 22.0876 47.8859 22.2867C47.9696 23.8012 48.5753 24.6855 49.1389 25.2872C49.7653 25.9352 50.3382 26.4359 51.2192 26.7894Z" fill="white"/>
<path d="M5.00701 26.8778C4.80722 26.8778 4.64526 26.7161 4.64526 26.5167V15.3757C4.64526 15.1763 4.80722 15.0147 5.00701 15.0147H7.83089C8.03067 15.0147 8.19263 14.853 8.19263 14.6536L8.19264 11.6862C8.19264 11.4867 8.03068 11.3251 7.83089 11.3251H5.00701C4.80722 11.3251 4.64526 11.1634 4.64526 10.964V6.20358C4.64526 6.00416 4.80722 5.8425 5.00701 5.8425H8.39486C8.59465 5.8425 8.75661 6.00416 8.75661 6.20358V10.7835C8.75661 10.9829 8.91857 11.1446 9.11836 11.1446H13.4647C13.6645 11.1446 13.8265 11.3062 13.8265 11.5056V14.6536C13.8265 14.853 13.6645 15.0147 13.4647 15.0147H9.11836C8.91857 15.0147 8.75661 15.1763 8.75661 15.3757V26.5167C8.75661 26.7161 8.59465 26.8778 8.39486 26.8778H5.00701Z" fill="white"/>
<path d="M78.9783 26.7894C79.8789 27.1429 80.8773 27.3196 81.9737 27.3196C82.8938 27.3196 83.7357 27.192 84.4992 26.9367C85.2628 26.6814 85.9284 26.3181 86.4962 25.8468C87.0639 25.3755 87.4946 24.8257 87.7883 24.1973C88.1015 23.5689 88.2582 22.8718 88.2582 22.1059C88.2582 20.8491 87.8177 19.8182 86.9367 19.0131C86.0557 18.1883 84.7831 17.6286 83.119 17.3341L82.2967 17.1868C81.3765 17.0297 80.7207 16.8235 80.3291 16.5682C79.9572 16.2933 79.7712 15.9595 79.7712 15.5667C79.7712 15.1151 79.967 14.742 80.3585 14.4474C80.7501 14.1529 81.2493 14.0056 81.8562 14.0056C82.4436 14.0056 83.1334 14.1725 83.5642 14.5063C83.919 14.7694 84.204 15.101 84.3089 15.5264C84.3573 15.7226 84.5184 15.8877 84.7208 15.884L87.5343 15.8326C87.7315 15.829 87.8901 15.6681 87.8688 15.4725C87.772 14.583 87.3467 13.4081 86.8486 12.8568C86.2808 12.2284 85.5662 11.7473 84.7048 11.4135C83.8629 11.06 82.9232 10.8833 81.8856 10.8833C80.7109 10.8833 79.6733 11.0993 78.7727 11.5313C77.8721 11.9633 77.1673 12.5622 76.6583 13.3281C76.1493 14.0743 75.8948 14.9383 75.8948 15.9202C75.8948 17.1573 76.3255 18.1785 77.1869 18.9836C78.0679 19.7887 79.3502 20.3386 81.0339 20.6331L81.8562 20.7804C82.7372 20.9375 83.3637 21.1633 83.7357 21.4579C84.1272 21.7328 84.323 22.0863 84.323 22.5183C84.323 23.0289 84.1077 23.4314 83.6769 23.726C83.2462 24.0206 82.6981 24.1678 82.0324 24.1678C81.3276 24.1678 80.7207 23.9911 80.2117 23.6376C79.7701 23.331 79.4183 22.7259 79.205 22.1736C79.1484 22.0272 79.0105 21.9254 78.8533 21.9254H75.9969C75.7971 21.9254 75.6339 22.0876 75.6449 22.2867C75.7287 23.8012 76.3344 24.6855 76.8979 25.2872C77.5244 25.9352 78.0973 26.4359 78.9783 26.7894Z" fill="white"/>
<path d="M62.8191 32.6656C63.4592 32.7473 63.8266 32.7683 64.1191 32.7683C64.8149 32.7683 65.922 32.6316 66.6266 32.3188C67.3312 32.0059 67.9253 31.5537 68.4088 30.962C68.8992 30.3703 69.293 29.6596 69.59 28.8299L75.8332 11.6548C75.906 11.4543 75.7576 11.2424 75.5443 11.2424H72.2772C72.1451 11.2424 72.0277 11.3268 71.9857 11.452L68.4559 21.9735C68.4278 22.0575 68.3491 22.114 68.2606 22.114C68.172 22.114 68.0933 22.0574 68.0652 21.9734L64.5417 11.4521C64.4997 11.3268 64.3823 11.2424 64.2502 11.2424H61.0029C60.7899 11.2424 60.6414 11.4538 60.7138 11.6542L66.2977 27.1207C66.3227 27.1901 66.322 27.2661 66.2957 27.3349L66.0049 28.0953C65.777 28.6938 65.4972 29.1223 65.1656 29.3807C64.841 29.646 64.461 29.782 64.0259 29.7888C63.6794 29.7943 63.2946 29.7993 62.8713 29.7182C62.7016 29.6857 62.529 29.7829 62.4855 29.9501L61.9269 32.0968C61.8843 32.2605 61.9819 32.4285 62.1423 32.482C62.1583 32.4873 62.1743 32.4927 62.1902 32.498C62.371 32.5587 62.5494 32.6185 62.8191 32.6656Z" fill="white"/>
</svg>
