<svg width="24" height="24" viewBox="0 0 24 24" fill="none" xmlns="http://www.w3.org/2000/svg">
<path d="M8.74119 20.6113C8.57023 20.6113 8.43164 20.473 8.43164 20.3024V10.769C8.43164 10.5983 8.57023 10.46 8.74119 10.46H11.1576C11.3286 10.46 11.4671 10.3217 11.4671 10.151L11.4671 7.61178C11.4671 7.44114 11.3286 7.30281 11.1576 7.30281H8.74119C8.57023 7.30281 8.43164 7.16448 8.43164 6.99384V2.9203C8.43164 2.74966 8.57023 2.61133 8.74119 2.61133H11.6402C11.8112 2.61133 11.9497 2.74966 11.9497 2.9203V6.83935C11.9497 7.00999 12.0883 7.14832 12.2593 7.14832H15.9785C16.1495 7.14832 16.2881 7.28665 16.2881 7.45729V10.151C16.2881 10.3217 16.1495 10.46 15.9785 10.46H12.2593C12.0883 10.46 11.9497 10.5983 11.9497 10.769V20.3024C11.9497 20.473 11.8112 20.6113 11.6402 20.6113H8.74119Z" fill="white"/>
</svg>
