<svg width="48" height="48" viewBox="0 0 48 48" fill="none" xmlns="http://www.w3.org/2000/svg">
<path d="M24 4.5C20.1433 4.5 16.3731 5.64366 13.1664 7.78634C9.95963 9.92903 7.46027 12.9745 5.98436 16.5377C4.50845 20.1008 4.12228 24.0216 4.8747 27.8043C5.62711 31.5869 7.4843 35.0615 10.2114 37.7886C12.9386 40.5157 16.4131 42.3729 20.1957 43.1253C23.9784 43.8777 27.8992 43.4916 31.4623 42.0156C35.0255 40.5397 38.071 38.0404 40.2137 34.8336C42.3564 31.6269 43.5 27.8567 43.5 24C43.4941 18.8301 41.4377 13.8737 37.782 10.218C34.1263 6.56233 29.1699 4.50595 24 4.5ZM40.5 24C40.5013 25.5217 40.2912 27.0362 39.8756 28.5H32.655C33.115 25.5176 33.115 22.4824 32.655 19.5H39.8756C40.2912 20.9638 40.5013 22.4783 40.5 24ZM19.125 31.5H28.875C27.9145 34.6474 26.247 37.5334 24 39.9375C21.7539 37.5328 20.0865 34.6469 19.125 31.5ZM18.3938 28.5C17.8788 25.5221 17.8788 22.4779 18.3938 19.5H29.6213C30.1362 22.4779 30.1362 25.5221 29.6213 28.5H18.3938ZM7.50001 24C7.4987 22.4783 7.70884 20.9638 8.12438 19.5H15.345C14.885 22.4824 14.885 25.5176 15.345 28.5H8.12438C7.70884 27.0362 7.4987 25.5217 7.50001 24ZM28.875 16.5H19.125C20.0855 13.3526 21.753 10.4666 24 8.0625C26.2461 10.4672 27.9135 13.3531 28.875 16.5ZM38.6869 16.5H32.0081C31.1664 13.4117 29.7476 10.5106 27.8269 7.95C30.1476 8.50749 32.3203 9.56021 34.1961 11.036C36.0719 12.5118 37.6064 14.3757 38.6944 16.5H38.6869ZM20.1731 7.95C18.2524 10.5106 16.8337 13.4117 15.9919 16.5H9.30563C10.3936 14.3757 11.9281 12.5118 13.8039 11.036C15.6797 9.56021 17.8524 8.50749 20.1731 7.95ZM9.30563 31.5H15.9919C16.8337 34.5883 18.2524 37.4894 20.1731 40.05C17.8524 39.4925 15.6797 38.4398 13.8039 36.964C11.9281 35.4882 10.3936 33.6243 9.30563 31.5ZM27.8269 40.05C29.7476 37.4894 31.1664 34.5883 32.0081 31.5H38.6944C37.6064 33.6243 36.0719 35.4882 34.1961 36.964C32.3203 38.4398 30.1476 39.4925 27.8269 40.05Z" fill="white"/>
</svg>
